# xmcd
#
# Track frame offsets: 
#        150
#        14807
#        26139
#        39554
#        52137
#        63422
#        75972
#        88106
#        102251
#        116499
#        130642
#        144491
#        156970
#        169865
#        184046
#        195624
#        210650
#        225714
#        238065
#        252015
#        265355
#        280432
#        292925
#        305899
#        320448
#
# Disc length: 4439 seconds
#
# Revision: 0
# Processed by: cddbd v1.5.2PL0 Copyright (c) Steve Scherf et al.
# Submitted via: ExactAudioCopyFreeDBPlugin 1.0
#
DISCID=6f115519
DTITLE=Various Artist - Black Secular Vocal Groups Vol. 1: The Twenties (1923
DTITLE=1929)
DYEAR=1997
DGENRE=Blues
TTITLE0=Tim Brymn's Black Devil Four - Aunt Hagar's Children Blues
TTITLE1=Variety Four - Miss Annabelle Lee
TTITLE2=Variety Four - I'm Coming, Virginia
TTITLE3=Pullman Porters Quartette - Every Time I Feel the Spirit
TTITLE4=Pullman Porters Quartette - Good News Chariot's Coming
TTITLE5=Pullman Porters Quartette - Pullman Passenger Train
TTITLE6=Pullman Porters Quartette - Jog-A-Long Boys
TTITLE7=Richmond Starlight Quartette - Won't Be Worried No More
TTITLE8=Richmond Starlight Quartette - Oh, You Better Mind
TTITLE9=Richmond Starlight Quartette - Monkey Man Blues
TTITLE10=Richmond Starlight Quartette - Gone Jazz Crazy
TTITLE11=Triangle Quartette - Doodlin' Back
TTITLE12=Triangle Quartette - She Done Quit Me Blues
TTITLE13=Four Pods of Pepper - Ain't Got No Mama Now
TTITLE14=Four Pods of Pepper - Queen Street Rag
TTITLE15=Monarch Jazz Quartet of Norfolk - What's the Matter Now?
TTITLE16=Monarch Jazz Quartet of Norfolk - Just Too Late
TTITLE17=Monarch Jazz Quartet of Norfolk - Pleading Blues
TTITLE18=Monarch Jazz Quartet of Norfolk - Four or Five Times
TTITLE19=Monarch Jubilee Quartet of Norfolk - When I Was a Moaner
TTITLE20=Monarch Jubilee Quartet of Norfolk - King Jesus, Stand by Me
TTITLE21=Monarch Jubilee Quartet of Norfolk - Somebody's Always Talkin
TTITLE21=g About Me
TTITLE22=Monarch Jubilee Quartet of Norfolk - When Death Shall Shake T
TTITLE22=his Frame
TTITLE23=Monarch Jazz Quartet of Norfolk - Somebody's Wrong
TTITLE24=Monarch Jazz Quartet of Norfolk - I Ain't Got Nobody (And Nob
TTITLE24=ody Cares for Me)
EXTD=
EXTT0=
EXTT1=
EXTT2=
EXTT3=
EXTT4=
EXTT5=
EXTT6=
EXTT7=
EXTT8=
EXTT9=
EXTT10=
EXTT11=
EXTT12=
EXTT13=
EXTT14=
EXTT15=
EXTT16=
EXTT17=
EXTT18=
EXTT19=
EXTT20=
EXTT21=
EXTT22=
EXTT23=
EXTT24=
PLAYORDER=
